<svg xmlns:svg="http://www.w3.org/2000/svg" xmlns="http://www.w3.org/2000/svg" viewBox="0 0 29 29" version="1.1"><rect x="2" y="2" width="1" height="1"/><rect x="3" y="2" width="1" height="1"/><rect x="4" y="2" width="1" height="1"/><rect x="5" y="2" width="1" height="1"/><rect x="6" y="2" width="1" height="1"/><rect x="7" y="2" width="1" height="1"/><rect x="8" y="2" width="1" height="1"/><rect x="12" y="2" width="1" height="1"/><rect x="14" y="2" width="1" height="1"/><rect x="16" y="2" width="1" height="1"/><rect x="20" y="2" width="1" height="1"/><rect x="21" y="2" width="1" height="1"/><rect x="22" y="2" width="1" height="1"/><rect x="23" y="2" width="1" height="1"/><rect x="24" y="2" width="1" height="1"/><rect x="25" y="2" width="1" height="1"/><rect x="26" y="2" width="1" height="1"/><rect x="2" y="3" width="1" height="1"/><rect x="8" y="3" width="1" height="1"/><rect x="10" y="3" width="1" height="1"/><rect x="11" y="3" width="1" height="1"/><rect x="12" y="3" width="1" height="1"/><rect x="15" y="3" width="1" height="1"/><rect x="16" y="3" width="1" height="1"/><rect x="18" y="3" width="1" height="1"/><rect x="20" y="3" width="1" height="1"/><rect x="26" y="3" width="1" height="1"/><rect x="2" y="4" width="1" height="1"/><rect x="4" y="4" width="1" height="1"/><rect x="5" y="4" width="1" height="1"/><rect x="6" y="4" width="1" height="1"/><rect x="8" y="4" width="1" height="1"/><rect x="10" y="4" width="1" height="1"/><rect x="11" y="4" width="1" height="1"/><rect x="13" y="4" width="1" height="1"/><rect x="16" y="4" width="1" height="1"/><rect x="20" y="4" width="1" height="1"/><rect x="22" y="4" width="1" height="1"/><rect x="23" y="4" width="1" height="1"/><rect x="24" y="4" width="1" height="1"/><rect x="26" y="4" width="1" height="1"/><rect x="2" y="5" width="1" height="1"/><rect x="4" y="5" width="1" height="1"/><rect x="5" y="5" width="1" height="1"/><rect x="6" y="5" width="1" height="1"/><rect x="8" y="5" width="1" height="1"/><rect x="10" y="5" width="1" height="1"/><rect x="11" y="5" width="1" height="1"/><rect x="12" y="5" width="1" height="1"/><rect x="15" y="5" width="1" height="1"/><rect x="18" y="5" width="1" height="1"/><rect x="20" y="5" width="1" height="1"/><rect x="22" y="5" width="1" height="1"/><rect x="23" y="5" width="1" height="1"/><rect x="24" y="5" width="1" height="1"/><rect x="26" y="5" width="1" height="1"/><rect x="2" y="6" width="1" height="1"/><rect x="4" y="6" width="1" height="1"/><rect x="5" y="6" width="1" height="1"/><rect x="6" y="6" width="1" height="1"/><rect x="8" y="6" width="1" height="1"/><rect x="11" y="6" width="1" height="1"/><rect x="12" y="6" width="1" height="1"/><rect x="15" y="6" width="1" height="1"/><rect x="18" y="6" width="1" height="1"/><rect x="20" y="6" width="1" height="1"/><rect x="22" y="6" width="1" height="1"/><rect x="23" y="6" width="1" height="1"/><rect x="24" y="6" width="1" height="1"/><rect x="26" y="6" width="1" height="1"/><rect x="2" y="7" width="1" height="1"/><rect x="8" y="7" width="1" height="1"/><rect x="11" y="7" width="1" height="1"/><rect x="13" y="7" width="1" height="1"/><rect x="16" y="7" width="1" height="1"/><rect x="20" y="7" width="1" height="1"/><rect x="26" y="7" width="1" height="1"/><rect x="2" y="8" width="1" height="1"/><rect x="3" y="8" width="1" height="1"/><rect x="4" y="8" width="1" height="1"/><rect x="5" y="8" width="1" height="1"/><rect x="6" y="8" width="1" height="1"/><rect x="7" y="8" width="1" height="1"/><rect x="8" y="8" width="1" height="1"/><rect x="10" y="8" width="1" height="1"/><rect x="12" y="8" width="1" height="1"/><rect x="14" y="8" width="1" height="1"/><rect x="16" y="8" width="1" height="1"/><rect x="18" y="8" width="1" height="1"/><rect x="20" y="8" width="1" height="1"/><rect x="21" y="8" width="1" height="1"/><rect x="22" y="8" width="1" height="1"/><rect x="23" y="8" width="1" height="1"/><rect x="24" y="8" width="1" height="1"/><rect x="25" y="8" width="1" height="1"/><rect x="26" y="8" width="1" height="1"/><rect x="10" y="9" width="1" height="1"/><rect x="11" y="9" width="1" height="1"/><rect x="16" y="9" width="1" height="1"/><rect x="17" y="9" width="1" height="1"/><rect x="18" y="9" width="1" height="1"/><rect x="2" y="10" width="1" height="1"/><rect x="8" y="10" width="1" height="1"/><rect x="10" y="10" width="1" height="1"/><rect x="14" y="10" width="1" height="1"/><rect x="19" y="10" width="1" height="1"/><rect x="20" y="10" width="1" height="1"/><rect x="23" y="10" width="1" height="1"/><rect x="24" y="10" width="1" height="1"/><rect x="25" y="10" width="1" height="1"/><rect x="3" y="11" width="1" height="1"/><rect x="4" y="11" width="1" height="1"/><rect x="5" y="11" width="1" height="1"/><rect x="7" y="11" width="1" height="1"/><rect x="11" y="11" width="1" height="1"/><rect x="13" y="11" width="1" height="1"/><rect x="15" y="11" width="1" height="1"/><rect x="16" y="11" width="1" height="1"/><rect x="17" y="11" width="1" height="1"/><rect x="18" y="11" width="1" height="1"/><rect x="19" y="11" width="1" height="1"/><rect x="21" y="11" width="1" height="1"/><rect x="22" y="11" width="1" height="1"/><rect x="23" y="11" width="1" height="1"/><rect x="24" y="11" width="1" height="1"/><rect x="25" y="11" width="1" height="1"/><rect x="2" y="12" width="1" height="1"/><rect x="3" y="12" width="1" height="1"/><rect x="4" y="12" width="1" height="1"/><rect x="5" y="12" width="1" height="1"/><rect x="6" y="12" width="1" height="1"/><rect x="8" y="12" width="1" height="1"/><rect x="10" y="12" width="1" height="1"/><rect x="11" y="12" width="1" height="1"/><rect x="15" y="12" width="1" height="1"/><rect x="16" y="12" width="1" height="1"/><rect x="17" y="12" width="1" height="1"/><rect x="18" y="12" width="1" height="1"/><rect x="21" y="12" width="1" height="1"/><rect x="23" y="12" width="1" height="1"/><rect x="25" y="12" width="1" height="1"/><rect x="26" y="12" width="1" height="1"/><rect x="2" y="13" width="1" height="1"/><rect x="3" y="13" width="1" height="1"/><rect x="6" y="13" width="1" height="1"/><rect x="7" y="13" width="1" height="1"/><rect x="10" y="13" width="1" height="1"/><rect x="11" y="13" width="1" height="1"/><rect x="12" y="13" width="1" height="1"/><rect x="13" y="13" width="1" height="1"/><rect x="15" y="13" width="1" height="1"/><rect x="18" y="13" width="1" height="1"/><rect x="20" y="13" width="1" height="1"/><rect x="21" y="13" width="1" height="1"/><rect x="23" y="13" width="1" height="1"/><rect x="26" y="13" width="1" height="1"/><rect x="5" y="14" width="1" height="1"/><rect x="6" y="14" width="1" height="1"/><rect x="7" y="14" width="1" height="1"/><rect x="8" y="14" width="1" height="1"/><rect x="9" y="14" width="1" height="1"/><rect x="10" y="14" width="1" height="1"/><rect x="12" y="14" width="1" height="1"/><rect x="14" y="14" width="1" height="1"/><rect x="15" y="14" width="1" height="1"/><rect x="17" y="14" width="1" height="1"/><rect x="18" y="14" width="1" height="1"/><rect x="20" y="14" width="1" height="1"/><rect x="21" y="14" width="1" height="1"/><rect x="26" y="14" width="1" height="1"/><rect x="2" y="15" width="1" height="1"/><rect x="3" y="15" width="1" height="1"/><rect x="4" y="15" width="1" height="1"/><rect x="6" y="15" width="1" height="1"/><rect x="10" y="15" width="1" height="1"/><rect x="11" y="15" width="1" height="1"/><rect x="12" y="15" width="1" height="1"/><rect x="17" y="15" width="1" height="1"/><rect x="18" y="15" width="1" height="1"/><rect x="21" y="15" width="1" height="1"/><rect x="25" y="15" width="1" height="1"/><rect x="2" y="16" width="1" height="1"/><rect x="8" y="16" width="1" height="1"/><rect x="9" y="16" width="1" height="1"/><rect x="12" y="16" width="1" height="1"/><rect x="13" y="16" width="1" height="1"/><rect x="14" y="16" width="1" height="1"/><rect x="17" y="16" width="1" height="1"/><rect x="20" y="16" width="1" height="1"/><rect x="21" y="16" width="1" height="1"/><rect x="22" y="16" width="1" height="1"/><rect x="23" y="16" width="1" height="1"/><rect x="25" y="16" width="1" height="1"/><rect x="26" y="16" width="1" height="1"/><rect x="2" y="17" width="1" height="1"/><rect x="4" y="17" width="1" height="1"/><rect x="6" y="17" width="1" height="1"/><rect x="9" y="17" width="1" height="1"/><rect x="10" y="17" width="1" height="1"/><rect x="11" y="17" width="1" height="1"/><rect x="12" y="17" width="1" height="1"/><rect x="13" y="17" width="1" height="1"/><rect x="19" y="17" width="1" height="1"/><rect x="20" y="17" width="1" height="1"/><rect x="21" y="17" width="1" height="1"/><rect x="23" y="17" width="1" height="1"/><rect x="24" y="17" width="1" height="1"/><rect x="26" y="17" width="1" height="1"/><rect x="2" y="18" width="1" height="1"/><rect x="4" y="18" width="1" height="1"/><rect x="7" y="18" width="1" height="1"/><rect x="8" y="18" width="1" height="1"/><rect x="10" y="18" width="1" height="1"/><rect x="11" y="18" width="1" height="1"/><rect x="12" y="18" width="1" height="1"/><rect x="13" y="18" width="1" height="1"/><rect x="18" y="18" width="1" height="1"/><rect x="19" y="18" width="1" height="1"/><rect x="20" y="18" width="1" height="1"/><rect x="21" y="18" width="1" height="1"/><rect x="22" y="18" width="1" height="1"/><rect x="24" y="18" width="1" height="1"/><rect x="10" y="19" width="1" height="1"/><rect x="14" y="19" width="1" height="1"/><rect x="15" y="19" width="1" height="1"/><rect x="16" y="19" width="1" height="1"/><rect x="18" y="19" width="1" height="1"/><rect x="22" y="19" width="1" height="1"/><rect x="2" y="20" width="1" height="1"/><rect x="3" y="20" width="1" height="1"/><rect x="4" y="20" width="1" height="1"/><rect x="5" y="20" width="1" height="1"/><rect x="6" y="20" width="1" height="1"/><rect x="7" y="20" width="1" height="1"/><rect x="8" y="20" width="1" height="1"/><rect x="12" y="20" width="1" height="1"/><rect x="13" y="20" width="1" height="1"/><rect x="18" y="20" width="1" height="1"/><rect x="20" y="20" width="1" height="1"/><rect x="22" y="20" width="1" height="1"/><rect x="26" y="20" width="1" height="1"/><rect x="2" y="21" width="1" height="1"/><rect x="8" y="21" width="1" height="1"/><rect x="14" y="21" width="1" height="1"/><rect x="15" y="21" width="1" height="1"/><rect x="17" y="21" width="1" height="1"/><rect x="18" y="21" width="1" height="1"/><rect x="22" y="21" width="1" height="1"/><rect x="25" y="21" width="1" height="1"/><rect x="2" y="22" width="1" height="1"/><rect x="4" y="22" width="1" height="1"/><rect x="5" y="22" width="1" height="1"/><rect x="6" y="22" width="1" height="1"/><rect x="8" y="22" width="1" height="1"/><rect x="11" y="22" width="1" height="1"/><rect x="12" y="22" width="1" height="1"/><rect x="14" y="22" width="1" height="1"/><rect x="16" y="22" width="1" height="1"/><rect x="17" y="22" width="1" height="1"/><rect x="18" y="22" width="1" height="1"/><rect x="19" y="22" width="1" height="1"/><rect x="20" y="22" width="1" height="1"/><rect x="21" y="22" width="1" height="1"/><rect x="22" y="22" width="1" height="1"/><rect x="24" y="22" width="1" height="1"/><rect x="26" y="22" width="1" height="1"/><rect x="2" y="23" width="1" height="1"/><rect x="4" y="23" width="1" height="1"/><rect x="5" y="23" width="1" height="1"/><rect x="6" y="23" width="1" height="1"/><rect x="8" y="23" width="1" height="1"/><rect x="11" y="23" width="1" height="1"/><rect x="12" y="23" width="1" height="1"/><rect x="16" y="23" width="1" height="1"/><rect x="18" y="23" width="1" height="1"/><rect x="19" y="23" width="1" height="1"/><rect x="20" y="23" width="1" height="1"/><rect x="25" y="23" width="1" height="1"/><rect x="26" y="23" width="1" height="1"/><rect x="2" y="24" width="1" height="1"/><rect x="4" y="24" width="1" height="1"/><rect x="5" y="24" width="1" height="1"/><rect x="6" y="24" width="1" height="1"/><rect x="8" y="24" width="1" height="1"/><rect x="11" y="24" width="1" height="1"/><rect x="12" y="24" width="1" height="1"/><rect x="13" y="24" width="1" height="1"/><rect x="14" y="24" width="1" height="1"/><rect x="17" y="24" width="1" height="1"/><rect x="23" y="24" width="1" height="1"/><rect x="24" y="24" width="1" height="1"/><rect x="26" y="24" width="1" height="1"/><rect x="2" y="25" width="1" height="1"/><rect x="8" y="25" width="1" height="1"/><rect x="11" y="25" width="1" height="1"/><rect x="13" y="25" width="1" height="1"/><rect x="16" y="25" width="1" height="1"/><rect x="17" y="25" width="1" height="1"/><rect x="18" y="25" width="1" height="1"/><rect x="19" y="25" width="1" height="1"/><rect x="21" y="25" width="1" height="1"/><rect x="22" y="25" width="1" height="1"/><rect x="26" y="25" width="1" height="1"/><rect x="2" y="26" width="1" height="1"/><rect x="3" y="26" width="1" height="1"/><rect x="4" y="26" width="1" height="1"/><rect x="5" y="26" width="1" height="1"/><rect x="6" y="26" width="1" height="1"/><rect x="7" y="26" width="1" height="1"/><rect x="8" y="26" width="1" height="1"/><rect x="10" y="26" width="1" height="1"/><rect x="11" y="26" width="1" height="1"/><rect x="12" y="26" width="1" height="1"/><rect x="15" y="26" width="1" height="1"/><rect x="16" y="26" width="1" height="1"/><rect x="18" y="26" width="1" height="1"/><rect x="20" y="26" width="1" height="1"/><rect x="23" y="26" width="1" height="1"/><rect x="26" y="26" width="1" height="1"/></svg>
